<svg xmlns="http://www.w3.org/2000/svg" xmlns:xlink="http://www.w3.org/1999/xlink" width="500" zoomAndPan="magnify" viewBox="0 0 375 374.999991" height="500" preserveAspectRatio="xMidYMid meet" version="1.0"><defs><clipPath id="daa821de95"><path d="M 182.410156 65.652344 L 373.660156 65.652344 L 373.660156 281.535156 L 182.410156 281.535156 Z M 182.410156 65.652344 " clip-rule="nonzero"/></clipPath><clipPath id="188cdda4c6"><path d="M 0 65.652344 L 190.992188 65.652344 L 190.992188 281.652344 L 0 281.652344 Z M 0 65.652344 " clip-rule="nonzero"/></clipPath><clipPath id="3be7ec444c"><path d="M 171.746094 145.21875 L 187.496094 145.21875 L 187.496094 344.71875 L 171.746094 344.71875 Z M 171.746094 145.21875 " clip-rule="nonzero"/></clipPath><clipPath id="ce1adc7d23"><path d="M 187.183594 145.21875 L 202.933594 145.21875 L 202.933594 344.71875 L 187.183594 344.71875 Z M 187.183594 145.21875 " clip-rule="nonzero"/></clipPath><clipPath id="71d7133830"><path d="M 187.5 329.886719 L 375 329.886719 L 375 344.136719 L 187.5 344.136719 Z M 187.5 329.886719 " clip-rule="nonzero"/></clipPath><clipPath id="63491eb748"><path d="M 172.0625 342.519531 L 374.996094 342.519531 L 374.996094 358.269531 L 172.0625 358.269531 Z M 172.0625 342.519531 " clip-rule="nonzero"/></clipPath></defs><rect x="-37.5" width="450" fill="#ffffff" y="-37.499999" height="449.999989" fill-opacity="1"/><rect x="-37.5" width="450" fill="#ffffff" y="-37.499999" height="449.999989" fill-opacity="1"/><g clip-path="url(#daa821de95)"><path fill="#f10c00" d="M 212.339844 95.644531 C 232.300781 75.949219 260.722656 65.539062 294.53125 65.539062 L 373.667969 65.539062 L 373.535156 73.726562 C 373.191406 94.96875 362.902344 111.320312 343.777344 121.011719 C 329.308594 128.339844 312.960938 130.375 301.792969 130.789062 L 293.746094 130.796875 C 267.03125 130.796875 251.082031 146.6875 251.082031 173.308594 L 251.082031 173.878906 C 251.082031 200.898438 266.632812 216.394531 293.746094 216.394531 L 302.292969 216.394531 L 302.613281 216.398438 C 313.886719 216.847656 330.34375 218.933594 344.71875 226.355469 C 363.574219 236.089844 373.542969 252.425781 373.542969 273.59375 L 373.542969 281.652344 L 295.585938 281.652344 C 261.605469 281.652344 232.917969 270.929688 212.628906 250.652344 C 193.035156 231.0625 182.675781 204.222656 182.675781 173.027344 L 182.675781 172.449219 C 182.675781 141.347656 192.933594 114.789062 212.339844 95.644531 " fill-opacity="1" fill-rule="nonzero"/></g><g clip-path="url(#188cdda4c6)"><path fill="#000000" d="M 161.539062 251.558594 C 141.550781 271.246094 113.089844 281.652344 79.238281 281.652344 L -0.00390625 281.652344 L 0.128906 273.46875 C 0.472656 252.234375 10.773438 235.894531 29.925781 226.207031 C 44.410156 218.882812 60.78125 216.851562 71.964844 216.433594 L 80.023438 216.429688 C 106.773438 216.429688 122.742188 200.542969 122.742188 173.9375 L 122.742188 173.367188 C 122.742188 146.363281 107.171875 130.878906 80.023438 130.878906 L 71.460938 130.878906 L 71.144531 130.871094 C 59.855469 130.425781 43.375 128.339844 28.984375 120.921875 C 10.101562 111.191406 0.121094 94.867188 0.121094 73.707031 L 0.121094 65.65625 L 78.179688 65.65625 C 112.207031 65.65625 140.933594 76.367188 161.246094 96.636719 C 180.871094 116.214844 191.242188 143.042969 191.242188 174.21875 L 191.242188 174.796875 C 191.242188 205.882812 180.972656 232.425781 161.539062 251.558594 " fill-opacity="1" fill-rule="nonzero"/></g><g clip-path="url(#3be7ec444c)"><path fill="#000000" d="M 187.441406 145.21875 L 187.441406 344.71875 L 171.804688 344.71875 L 171.804688 145.21875 Z M 187.441406 145.21875 " fill-opacity="1" fill-rule="nonzero"/></g><g clip-path="url(#ce1adc7d23)"><path fill="#f10c00" d="M 202.878906 145.21875 L 202.878906 344.414062 L 187.554688 344.414062 L 187.554688 145.21875 Z M 202.878906 145.21875 " fill-opacity="1" fill-rule="nonzero"/></g><g clip-path="url(#71d7133830)"><path fill="#f10c00" d="M 187.5 329.941406 L 375 329.941406 L 375 344.363281 L 187.5 344.363281 Z M 187.5 329.941406 " fill-opacity="1" fill-rule="nonzero"/></g><g clip-path="url(#63491eb748)"><path fill="#000000" d="M 374.996094 342.578125 L 171.746094 342.578125 L 171.746094 358.210938 L 374.996094 358.210938 Z M 374.996094 342.578125 " fill-opacity="1" fill-rule="nonzero"/></g></svg>